<?xml version="1.0" encoding="UTF-8"?>
<svg width="1944" height="2592" xmlns="http://www.w3.org/2000/svg">
 <metadata id="metadata7">image/svg+xml</metadata>

 <g>
  <title>Layer 1</title>
  <path fill="#000000" d="m-208.503998,2193.784668c0,-320.710327 0.225647,-401.86731 1.117874,-402.001343c0.614822,-0.092407 2.642273,-0.443604 4.505341,-0.780518c2.50473,-0.452759 3.320404,-0.27832 3.13002,0.669556c-0.141571,0.7052 0.556412,1.768921 1.551254,2.363892c1.022415,0.611572 1.674164,1.842407 1.499451,2.831787c-0.339767,1.922363 2.853928,2.545166 3.84613,0.75c0.303986,-0.550049 0.126556,-1 -0.394363,-1c-0.520859,0 -0.947067,-0.450073 -0.947067,-1c0,-0.550049 1.435623,-1 3.190308,-1c2.760132,0 3.115326,0.263916 2.634674,1.957397c-0.449219,1.582764 0.004547,2.119751 2.370377,2.805298c2.046249,0.592896 3.081116,1.582886 3.442047,3.292603c0.70517,3.339844 3.047928,3.129639 3.401352,-0.305298c0.155609,-1.512573 0.759323,-2.750854 1.341431,-2.751709c0.717941,-0.001221 1.058472,2.331299 1.058472,7.25c0,6.584961 0.164459,7.251709 1.788589,7.251709c1.184128,0 1.886856,-0.775146 2.079391,-2.293579c0.217514,-1.714844 0.706223,-2.146118 1.936966,-1.709229c0.905289,0.321289 1.895432,0.132813 2.200302,-0.418823c0.365326,-0.660767 1.307449,-0.619263 2.761932,0.121826c1.214172,0.61853 2.401611,0.907715 2.638763,0.642456c0.732513,-0.819092 0.797714,-7.203247 0.101334,-9.929443c-0.615005,-2.407837 -0.482925,-2.557495 1.909851,-2.164795c1.596222,0.261963 2.997482,-0.153564 3.69725,-1.096313c0.997772,-1.344482 1.324799,-1.296997 2.85556,0.414795c2.188507,2.447144 2.216583,3.888428 0.063324,3.258911c-2.135223,-0.62439 -3.308701,3.540649 -1.551239,5.505859c0.986664,1.103149 1.531738,1.112915 3.048203,0.053833c1.423965,-0.994385 2.319855,-1.026367 3.914017,-0.139771c3.909851,2.174683 15.338348,3.067627 20.400284,1.594238c2.538902,-0.739136 3.185829,-1.450928 3.425385,-3.768921c0.162415,-1.571777 -0.421295,-4.345825 -1.297058,-6.164307c-1.442413,-2.994995 -1.461975,-3.475952 -0.207741,-5.106567c0.761574,-0.990112 1.634491,-2.587769 1.939728,-3.550171c0.680534,-2.145996 2.030029,-2.269897 2.723091,-0.25c0.283127,0.824951 0.929794,1.5 1.437126,1.5c1.183876,0 1.206856,-3.685425 0.028076,-4.5c-1.549606,-1.070923 -0.971901,-2.5 1.010559,-2.5c1.728668,0 1.862976,-0.416382 1.451332,-4.499512c-0.539169,-5.349609 -1.917694,-7.500488 -4.807159,-7.500488c-1.169365,0 -2.126183,-0.450073 -2.126183,-1c0,-0.550049 0.775627,-1 1.723656,-1c0.948059,0 2.502586,-1.1073 3.454567,-2.460571c1.520119,-2.160889 1.93219,-2.295898 3.384705,-1.108154c1.449997,1.185547 1.496857,1.563843 0.379974,3.068726c-1.112953,1.499512 -1.080475,1.874512 0.257309,2.968506c1.795181,1.467651 2.006966,6.269897 0.445618,10.101807c-0.970222,2.381104 -0.854225,2.874268 1.090324,4.634888c1.828102,1.655396 2.966972,1.863525 7.122116,1.302002c2.720421,-0.367676 5.886497,-1.34314 7.035904,-2.167725c3.084251,-2.212769 3.389557,-0.873413 0.635323,2.786743l-2.4161,3.210693l4.569183,2.513794c4.2258,2.324829 4.678841,2.391113 6.028679,0.881592c1.140137,-1.27478 1.229385,-1.942017 0.407982,-3.048828c-0.578445,-0.779297 -0.983101,-2.264404 -0.899391,-3.300171c0.406296,-5.024536 -0.163124,-7.383301 -1.782333,-7.383301c-2.220139,0 -7.291679,-2.894165 -7.291679,-4.161133c0,-0.624512 1.333931,-0.762695 3.468681,-0.359375c3.273926,0.618408 3.522354,0.483032 4.424973,-2.412109c1.030197,-3.304688 1.934616,-3.678345 4.781212,-1.974854c1.277054,0.764282 2.108459,0.776611 2.766319,0.041016c1.266846,-1.416626 8.6213,-0.243042 11.126205,1.775391c1.225365,0.987427 1.796196,2.254883 1.504745,3.341064c-0.258362,0.962402 -0.040169,1.75 0.484863,1.75c0.525063,0 0.954582,-0.623901 0.954582,-1.386597c0,-1.685791 5.032616,-2.684326 7.755745,-1.539063c2.591824,1.090088 4.515278,-1.230713 2.539585,-3.064209c-0.743858,-0.690308 -1.352432,-2.156128 -1.352432,-3.257568c0,-1.691772 -0.41647,-1.909546 -2.682873,-1.402588c-2.021187,0.452026 -2.682869,0.2323 -2.682869,-0.890869c0,-1.029297 -0.803055,-1.422485 -2.593796,-1.269897c-3.212372,0.273682 -5.628036,-1.833862 -5.274414,-4.601807c0.214157,-1.675903 0.795822,-2.023315 2.949608,-1.762451c1.475578,0.178711 3.387138,1.035889 4.247887,1.904907c2.034607,2.054199 2.034607,0.733032 0,-1.634766c-1.457512,-1.696289 -3.105782,-2.357422 -9.40097,-3.770996c-3.207901,-0.720337 -3.911697,-2.116333 -2.092628,-4.150513c1.202301,-1.344482 1.774551,-1.416138 3.223732,-0.404175c2.791359,1.949341 3.575737,1.485596 2.993561,-1.769409c-0.401543,-2.244995 -0.205696,-3 0.778023,-3c1.921822,0 4.766754,3.911621 4.442039,6.107788c-0.210808,1.425903 0.25943,1.892212 1.90789,1.892212c1.435486,0 2.348389,0.6875 2.655304,2c0.628067,2.685303 3.318089,2.609375 3.318089,-0.093628c0,-1.252563 -0.718452,-2.303711 -1.788582,-2.616699c-0.983727,-0.287598 -1.788586,-0.883667 -1.788586,-1.324463c0,-0.440918 -0.231979,-1.477661 -0.515556,-2.303833c-0.349747,-1.019287 0.130669,-1.608276 1.494537,-1.831787c1.271351,-0.208496 2.773205,-1.867676 4.086639,-4.514893c1.899494,-3.828491 1.955116,-4.321289 0.652378,-5.777954c-1.199959,-1.341797 -1.235706,-1.846436 -0.227394,-3.204956c0.785015,-1.057739 1.312099,-5.380371 1.531986,-12.563843l0.335194,-10.951416l2.581181,-1.006104c1.419601,-0.553345 2.631374,-1.412109 2.69289,-1.908325c0.061447,-0.496094 0.210255,-2.139648 0.330624,-3.6521c0.120369,-1.512573 0.653549,-8.048828 1.184849,-14.525146c0.5313,-6.476318 0.733585,-13.969238 0.449558,-16.651123c-0.511616,-4.830933 0.36755,-16.673828 1.17107,-15.775269c0.22966,0.256836 0.574406,8.057251 0.766144,17.334229c0.191639,9.276978 0.373009,17.034912 0.402958,17.239624c0.029968,0.204956 0.675999,-0.204224 1.435699,-0.909302c0.928898,-0.862061 1.204613,-2.180664 0.841877,-4.0271c-0.313347,-1.595337 -0.116875,-3.037476 0.468887,-3.442261c0.685383,-0.473755 0.81192,-2.744751 0.395275,-7.095215c-0.426483,-4.453125 -0.309258,-6.398438 0.385696,-6.398438c0.549191,0 0.998474,-0.906128 0.998474,-2.013672c0,-1.107422 0.50304,-2.921143 1.117863,-4.030518c0.921391,-1.662354 0.882133,-2.18457 -0.223568,-2.971069c-1.038719,-0.73877 -0.786434,-0.957642 1.117863,-0.969482c1.352623,-0.008423 2.411633,-0.352783 2.35342,-0.765259c-0.058311,-0.412598 -0.052143,-1.425049 0.013683,-2.25c0.106331,-1.333374 0.215878,-1.333374 0.986485,0c0.740829,1.28186 0.868893,1.245483 0.880615,-0.25c0.007507,-0.962524 0.593536,-1.75 1.302353,-1.75c1.86763,0 2.609539,-1.862549 1.394192,-3.5c-1.418522,-1.911377 -0.370319,-3.5 2.309153,-3.5c2.144857,0 2.164536,-0.066528 0.738592,-2.5c-1.20023,-2.048462 -1.236526,-2.5 -0.200771,-2.5c0.695322,0 2.934254,-1.794556 4.975473,-3.987793c2.041216,-2.193237 3.956976,-3.543213 4.257278,-3c0.913149,1.652222 2.932644,1.102539 2.80028,-0.762207c-0.087811,-1.237061 0.53112,-1.75 2.111507,-1.75c1.83473,0 2.278655,0.538086 2.475223,3c0.376406,4.715698 2.150234,11.5 3.006781,11.5c0.427918,0 0.778028,-0.619995 0.778028,-1.377686c0,-0.757568 0.63603,-1.967651 1.413349,-2.689087c0.822472,-0.763306 1.248685,-2.275024 1.019394,-3.616089c-0.47389,-2.771851 1.7233,-5.39978 2.535579,-3.032837c0.285019,0.830322 0.427468,2.11853 0.31676,2.862671c-0.256664,1.724243 1.003661,5.132446 2.251199,6.087646c0.644954,0.493896 0.593005,0.739746 -0.158386,0.75c-0.614824,0.008423 -1.117863,0.915283 -1.117863,2.015381c0,1.099976 0.304151,2 0.675998,2c0.371752,0 1.236622,1.462402 1.921927,3.25c1.792414,4.675537 2.913416,6.104614 3.688497,4.702271c0.386326,-0.698975 0.846352,-0.18457 1.185382,1.32605c0.770073,3.430786 3.761651,4.473022 16.226886,5.652832c14.595709,1.381348 26.441847,2.992432 27.529211,3.743896c0.593712,0.410278 0.686806,10.188721 0.273476,28.723511c-0.535408,24.007813 -0.434002,28.3927 0.696373,30.10144c1.169117,1.76709 1.167057,2.193481 -0.017071,3.661499c-1.885536,2.337646 -1.231441,7.223633 1.029587,7.691406c0.983723,0.203491 2.12476,1.02356 2.535671,1.822388c0.410931,0.798706 1.618214,1.828491 2.682873,2.28833c1.782413,0.769775 1.807278,0.894043 0.313713,1.567627c-1.136185,0.512451 -2.021893,0.093262 -2.957134,-1.39978c-1.746647,-2.788574 -3.888557,-2.725464 -4.022438,0.11853c-0.710957,15.107422 -0.605885,20.848999 0.374977,20.487915c0.589779,-0.217041 1.200935,-1.371826 1.358067,-2.566284c0.181896,-1.382324 0.923531,-2.171631 2.040237,-2.171631c1.790543,0 2.039078,-0.4375 2.982109,-5.25c0.43676,-2.22876 1.030121,-2.75 3.130177,-2.75c1.425236,0 2.739311,-0.496582 2.920223,-1.103394c0.180908,-0.606812 0.842777,1.13855 1.470844,3.878662l1.141823,4.981934l4.566788,0.490723c4.949265,0.53186 6.949348,2.405518 6.949348,6.510498c0,1.939819 0.336441,2.256958 1.83152,1.726318c1.993988,-0.707642 4.428505,0.980103 4.428505,3.070313c0,0.720459 -0.804863,1.595825 -1.788574,1.944946c-2.605698,0.924805 -2.18779,2.496338 0.670715,2.522217l2.459297,0.022217l-2.235725,1.970459c-1.894463,1.669556 -2.03093,2.121826 -0.894287,2.962402c0.737801,0.545654 2.785973,0.999023 4.551491,1.007324c2.56321,0.012207 3.415291,-0.488403 4.228653,-2.484619c0.765602,-1.878784 1.745735,-2.52832 3.944351,-2.614014c5.301437,-0.206665 7.671219,-0.734619 10.413109,-2.320068c4.164001,-2.407837 5.296982,-1.979736 6.483788,2.449707c0.861824,3.216309 1.404305,3.89917 2.725624,3.430176c0.907349,-0.322021 3.908577,0.570923 6.669525,1.984375c2.760849,1.41333 5.531799,2.569824 6.157455,2.569824c1.525932,0 2.137978,2.048584 1.582718,5.296631c-0.721153,4.218628 0.23465,6.016602 2.48317,4.671021c1.600143,-0.957642 1.781876,-1.695435 1.263367,-5.127441c-0.510559,-3.379028 -0.312744,-4.238403 1.259064,-5.46936c1.025589,-0.803345 2.198975,-2.902832 2.607498,-4.665649c0.931839,-4.021484 2.830322,-4.105835 4.619095,-0.2052c0.756577,1.649902 1.459473,3.168701 1.561951,3.375c0.260696,0.524536 4.721329,0.470581 5.198517,-0.062988c0.532288,-0.595215 3.916992,-118.183472 5.348389,-185.812012c0.285187,-13.475098 0.738678,-26.1875 1.007782,-28.25c0.529495,-4.059082 2.111862,-5.171265 2.134216,-1.5c0.007507,1.237427 0.391266,2.917603 0.852615,3.733521c0.666245,1.178223 1.110443,0.766479 2.157471,-2c0.725189,-1.916016 2.152374,-4.049805 3.171692,-4.742065c1.019226,-0.692139 1.853165,-2.154541 1.853165,-3.25c0,-1.853271 0.605255,-1.990723 8.719315,-1.980469c12.618607,0.015869 15.426514,0.679321 15.426514,3.644531c0,1.649658 0.713287,2.697144 2.293945,3.369263c3.185364,1.354126 9.984207,1.221802 10.775558,-0.209839c0.616089,-1.114746 1.06958,-15.672729 2.649429,-85.065063c0.360031,-15.8125 0.94455,-28.75 1.29895,-28.75c0.90744,0 2.0905,5.9198 1.898499,9.5l-0.160889,3l1.373627,-2.731445c1.226608,-2.439209 1.854324,-2.71936 5.865738,-2.618286c3.553299,0.089478 4.953033,-0.37085 6.696899,-2.202881c1.617325,-1.698975 1.9077,-2.521362 1.090134,-3.086304c-0.650208,-0.449463 -1.417892,-0.164307 -1.84259,0.684326c-0.400467,0.800049 -1.633591,1.45459 -2.740463,1.45459c-1.106873,0 -2.428085,0.464844 -2.936035,1.032959c-0.507965,0.567871 -1.57431,0.753418 -2.369614,0.412231c-1.297165,-0.556519 -1.399292,-3.314209 -0.991592,-26.782837c0.541687,-31.186035 0.529968,-31.861084 -0.574478,-33.096069c-1.435349,-1.60498 -0.997955,-2.286377 1.880875,-2.930176c2.136627,-0.477905 3.078125,-1.500732 4.247864,-4.614868c1.11824,-2.977051 2.017792,-4.00354 3.515015,-4.010986c1.106689,-0.005615 2.018326,0.552246 2.025833,1.239746c0.009216,0.84021 0.229111,0.898315 0.670731,0.177002c1.246902,-2.036133 3.959091,-2.429688 6.77504,-0.982666c1.55365,0.79834 4.192871,1.829224 5.864838,2.291016c3.75325,1.036621 5.655411,5.13208 2.774918,5.974365c-2.286255,0.668457 -2.332855,2.290283 -0.065842,2.290283c3.167221,0 4.791809,2.917725 4.136551,7.429077c-0.32518,2.239014 -0.567078,4.745972 -0.537384,5.570923c0.029694,0.824951 0.03363,3.211914 0.008774,5.304199c-0.032654,2.754272 0.521088,4.362549 2.006149,5.826294c1.128143,1.111938 1.629578,1.792358 1.114197,1.511841c-2.139038,-1.164917 -3.035843,1.331543 -3.553101,9.890381c-1.114548,18.443115 -0.602936,23.921631 2.313431,24.774414c1.723923,0.50415 2.005554,-0.34375 2.924423,-8.807129c0.179123,-1.649902 0.386063,4.05835 0.459778,12.685059c0.084137,9.850098 -0.248016,16.731934 -0.892792,18.5c-1.47406,4.041626 -3.06311,81.919312 -1.708725,83.744141c0.547592,0.737793 5.484955,2.114014 10.977051,3.059814c5.490158,0.945313 10.559494,1.966553 11.265305,2.269409c1.100769,0.472412 1.235809,9.326538 0.949005,62.237793c-0.281982,52.013306 -0.136658,61.954224 0.926758,63.390869c0.693604,0.937256 1.85672,1.448486 2.584686,1.136108c0.733856,-0.314941 1.839539,0.255981 2.481903,1.281494c0.637207,1.017212 5.971161,4.221436 11.853363,7.120483c9.50238,4.68335 10.751434,5.58728 11.202057,8.106812c0.417114,2.332397 1.029053,2.891846 3.447876,3.151855l2.940582,0.316284l0.093018,49.5c0.051147,27.224976 0.151764,50.035278 0.223541,50.689575c0.071869,0.654297 1.639709,1.329224 3.484161,1.5c3.065735,0.283813 3.398041,0.61084 3.871338,3.810425c0.885132,5.984497 1.617676,1.283569 2.082581,-13.366699c0.242096,-7.626587 0.560913,-13.991699 0.708466,-14.144653c0.147675,-0.152954 3.689056,-0.59375 7.869843,-0.97937c4.180817,-0.385742 9.81485,-0.995483 12.52005,-1.355347l4.91861,-0.653931l0.447174,-13.099609c0.300018,-8.790039 0.838806,-13.626343 1.637787,-14.700684c0.740906,-0.996094 2.936584,-1.713989 5.812897,-1.900391c4.495758,-0.291138 4.629913,-0.388184 4.902222,-3.545898c0.219879,-2.549805 1.34082,-4.212646 5.224152,-7.75c2.719299,-2.476807 5.209076,-4.528076 5.532898,-4.558105c0.32373,-0.029907 2.399658,-0.264404 4.613007,-0.520996c5.224274,-0.605713 6.056122,-0.592285 10.07312,0.164063c5.201538,0.979126 6.024109,-0.407349 6.024109,-10.154175c0,-7.464966 0.204437,-8.480957 1.987549,-9.877563c1.093201,-0.856201 3.542786,-1.556641 5.443481,-1.556641c2.982178,0 3.588318,-0.392578 4.422699,-2.864502c1.355652,-4.015991 3.950165,-5.491089 9.238037,-5.251831c3.227844,0.145996 4.897552,-0.252686 5.724701,-1.367188c0.962006,-1.296265 2.366119,-1.455444 7.967957,-0.903564c3.740021,0.36853 7.806122,1.108398 9.035797,1.644165c1.229645,0.535767 3.884003,1.14563 5.89856,1.355225l3.662933,0.381104l0.58136,-12.746704c0.319733,-7.010742 0.583008,-20.929932 0.584961,-30.931641c0.002075,-10.001709 0.385162,-19.307129 0.851563,-20.678589c0.57016,-1.677124 1.656738,-2.598877 3.318176,-2.815063c3.286682,-0.427612 3.684448,-2.376953 3.793365,-18.587646l0.089172,-13.266235l2.906433,-1.410767c1.598541,-0.775879 3.629944,-1.662842 4.514221,-1.970703c1.307983,-0.455566 1.497864,-1.214844 1.018311,-4.072998c-0.38678,-2.305298 -0.247711,-3.513062 0.404388,-3.513062c0.5466,0 0.993835,1.142822 0.993835,2.539795c0,4.74585 3.407104,9.938354 14.680573,22.373901c6.189667,6.827515 11.255371,12.902588 11.257141,13.5c0.003326,1.059814 6.628052,4.586304 8.615967,4.586304c0.549377,0 1.508301,-0.686401 2.13092,-1.525269c1.010284,-1.361206 1.31192,-1.34314 2.804413,0.167114c0.982544,0.994263 4.526093,2.139038 8.591064,2.775269l6.918793,1.082886l-0.353058,50.75l-0.353088,50.75l2.588776,0.105957c1.423798,0.058228 3.727234,0.02063 5.11853,-0.08374c1.391418,-0.104248 3.325989,0.616089 4.299072,1.60083c1.299316,1.314941 3.834106,1.935913 9.543152,2.338135c8.753967,0.616699 10.009583,1.178101 10.009583,4.475342c0,4.072388 1.544678,4.472412 17.299011,4.47998c11.898682,0.005859 15.07489,-0.275757 15.450256,-1.369751c0.259949,-0.757446 0.792175,-4.452637 1.1828,-8.211914l0.710205,-6.834839l0.131287,6c0.112122,5.129272 1.584106,11.001709 2.00531,8c0.223511,-1.593018 0.463135,-4.740356 0.628418,-8.25c0.245361,-5.212646 1.941467,-3.740601 1.941467,1.684814c0,7.555908 1.119324,9.952637 4.596497,9.842163c2.035034,-0.064697 3.277649,0.549561 4.177795,2.06543c1.024841,1.725952 2.165466,2.157593 5.702209,2.157593c7.755615,0 7.880798,0.230835 7.880798,14.535156c0,11.527222 0.126282,12.464844 1.679077,12.464844c0.923462,0 2.191101,-0.690063 2.817078,-1.533325c1.013855,-1.365967 1.343018,-1.323975 3.015991,0.385132c1.032776,1.055054 2.762756,2.218018 3.844299,2.584351c1.081543,0.366455 2.197449,1.480103 2.479858,2.474854c0.3927,1.383911 1.809875,1.960327 6.032959,2.453979c3.035767,0.354736 5.844177,0.282104 6.240906,-0.161499c0.396667,-0.443604 1.154968,-23.058472 1.684937,-50.255127c0.796753,-40.884766 1.189209,-49.708252 2.26593,-50.948364c1.094421,-1.260498 5.652466,-1.528564 28.551147,-1.678711c14.986938,-0.098389 29.396851,-0.478882 32.022034,-0.845581c3.879639,-0.541992 5.678406,-0.237671 9.608948,1.626099c2.659729,1.261108 5.141968,2.766602 5.515991,3.345459c0.374084,0.578979 0.411133,22.315186 0.082214,48.302734c-0.40802,32.236206 -0.304749,47.25 0.324707,47.25c0.609253,0 1.145386,-14.355225 1.578003,-42.25c0.403137,-25.99939 1.0047,-42.730835 1.563965,-43.5c0.499634,-0.6875 2.454956,-1.25 4.344788,-1.25c3.962402,0 5.28772,-1.845459 5.28772,-7.362793c0,-5.585938 1.667908,-6.635254 10.571777,-6.651001c9.207703,-0.016113 11.552795,-0.591187 12.236633,-3.000366c0.659912,-2.324951 8.165344,-3.422485 21.011841,-3.07251c16.621033,0.452881 17.408752,0.555664 17.711304,2.312134c0.529419,3.07373 4.192932,4.585938 12.765991,5.269409c4.633423,0.369507 9.191711,0.911987 10.129639,1.205566c1.651001,0.516968 1.688354,1.724976 1.170898,37.894287c-0.293945,20.548218 -0.227295,37.572754 0.148132,37.832275c0.603638,0.417114 1.998413,-18.37439 3.223572,-43.427002c1.367798,-27.969482 3.076294,-40.034302 6.061584,-42.804688c0.653198,-0.606201 7.122375,-1.141357 15.423706,-1.275879c7.864075,-0.127319 14.801453,-0.43457 15.416321,-0.682617c0.739624,-0.298218 1.117798,-2.669922 1.117798,-7.010498c0,-7.825317 1.051208,-7.703857 1.222229,0.141113c0.065552,3.00708 0.449951,5.842163 0.854126,6.300049c0.404358,0.457886 7.042786,1.507446 14.752319,2.33252l14.017334,1.5l1.248657,4c0.68689,2.199951 1.493286,8.94519 1.792175,14.98938l0.543335,10.98938l4.918579,0.752441c2.705322,0.413696 5.855347,0.998413 7.000122,1.299072l2.081421,0.546631l-0.22699,61.896729c-0.237732,64.871582 -0.227417,65.061768 3.551392,65.00415c0.800537,-0.012329 2.46167,-0.886475 3.691284,-1.942505l2.235718,-1.920166l0.625305,-43.704102c0.343994,-24.037109 0.83429,-44.31311 1.089783,-45.057495c0.303284,-0.883789 1.988342,-1.353516 4.854553,-1.353516c2.645447,0 4.797791,-0.549438 5.416138,-1.382568c0.663269,-0.893677 1.12677,-7.791992 1.311096,-19.510254c0.156738,-9.970459 0.561523,-18.437134 0.899475,-18.814941c0.33783,-0.377808 0.572205,7.940796 0.52063,18.485962c-0.051575,10.545166 0.161133,19.633911 0.472473,20.197388c0.31134,0.563354 2.530823,1.024414 4.932068,1.024414c2.401306,0 4.640015,0.495972 4.975037,1.102051c0.335022,0.606201 0.557861,4.993652 0.4953,9.75c-0.137329,10.4198 0.496948,12.063721 3.73877,9.688477c1.93512,-1.417725 3.049316,-1.511108 7.370361,-0.61792c2.799805,0.578735 5.547058,0.723389 6.10498,0.321411c1.6427,-1.183594 5.3797,-1.03125 6.827209,0.27832c0.737793,0.66748 3.64502,1.464355 6.460571,1.770752c2.815552,0.306396 5.531982,0.842407 6.036438,1.190918c0.586365,0.405273 0.917297,9.451294 0.917297,25.074951l0,24.44104l3.914856,0c2.153076,0 4.305176,-0.5625 4.782471,-1.25c1.57019,-2.262085 4.717041,-24.376587 4.717041,-33.149536c0,-8.51355 0.022583,-8.600464 2.241943,-8.600464c2.239136,0 2.241272,0.009155 1.674377,7.25c-0.312073,3.987427 -0.918579,7.67749 -1.347656,8.199951c-1.608948,1.959351 -0.800293,6.626587 1.537842,8.875366c2.410706,2.318726 2.863464,4.97876 1.746704,10.260986c-0.823059,3.892822 1.179565,6.413696 5.095276,6.413696c1.524658,0 3.537109,0.774048 4.471924,1.720215c1.29126,1.306519 3.461609,1.748901 9.028137,1.839722c4.030457,0.065796 8.258484,0.676392 9.395447,1.356812c1.136963,0.680542 2.650635,0.986938 3.363586,0.68103c0.712891,-0.305908 1.97821,0.334351 2.811707,1.422974c1.333435,1.741455 2.646301,1.977661 10.930359,1.965454c12.062256,-0.017334 13.269165,-0.395264 13.882568,-4.346436c0.268188,-1.726929 0.781128,-13.92981 1.139893,-27.117676l0.652466,-23.977783l2.682861,-0.921021c1.475586,-0.506592 3.950928,-1.528931 5.500854,-2.272095c1.550049,-0.743286 3.839355,-1.351196 5.087402,-1.351196c2.008301,0 2.339844,-0.524414 2.880493,-4.556885c0.426636,-3.181519 1.237183,-5.015625 2.684937,-6.076416c1.140503,-0.835693 2.19812,-2.704712 2.350098,-4.153564c0.310547,-2.959717 2.371704,-3.951416 8.548584,-4.113525l3.800659,-0.099609l0.192749,-25.25c0.105835,-13.887573 0.206543,-28.262329 0.223511,-31.944092c0.016968,-3.681641 0.43335,-7.105591 0.925293,-7.609009c0.791748,-0.809937 6.624634,-2.140747 17.885742,-4.080688c3.368042,-0.5802 3.603271,-0.845459 4.024292,-4.538086c0.245972,-2.156982 0.900635,-4.088623 1.454834,-4.292236c1.463989,-0.538208 2.264893,2.547974 1.224854,4.720825c-0.490112,1.023926 -0.891113,2.063843 -0.891113,2.310791c0,1.281006 6.141357,1.859863 27.555664,2.597412c13.284302,0.457642 23.916626,1.241577 24.41626,1.800293c0.559937,0.626099 0.949829,22.974609 1.061646,60.869751l0.176636,59.880249l6.790771,-0.06543c3.734619,-0.036011 7.394531,-0.324829 8.133301,-0.641724c1.043701,-0.447876 1.481323,-3.31604 1.964355,-12.873657c0.341797,-6.76355 0.839844,-12.541992 1.106689,-12.840942c0.266724,-0.29895 4.101318,-0.791382 8.520752,-1.094238c5.607422,-0.384399 8.276367,-0.985962 8.831665,-1.990601c0.679932,-1.230347 1.195435,-1.175781 3.543335,0.375122c2.043335,1.349609 5.549683,1.988159 13.675781,2.490601l10.928101,0.675659l0.542969,13c0.298584,7.149902 0.600464,13.147705 0.670654,13.328125c0.07019,0.180542 1.435669,0.227661 3.03418,0.104614c6.082275,-0.467773 13.190796,0.1073 13.190796,1.067261c0,0.549927 -1.710205,1.056274 -3.800659,1.125122l-3.800781,0.125122l4.024292,0.800659c2.213257,0.44043 5.688354,0.834106 7.722168,0.875c2.889282,0.057861 4.009888,0.606567 5.124756,2.509277c0.931519,1.5896 2.442383,2.544434 4.35083,2.75l2.923706,0.314819l0.242554,19.75c0.147705,12.031006 0.584717,19.75 1.117798,19.75c0.481445,0 0.875488,-1.334229 0.875488,-2.964844c0,-3.545166 2.020142,-5.029419 6.871948,-5.04895c5.200684,-0.020752 7.233276,-0.944092 7.818604,-3.55188c0.293457,-1.307129 1.333618,-2.855469 2.311523,-3.440674c1.832031,-1.096436 2.473145,-3.993652 0.883667,-3.993652c-0.491821,0 -0.894287,-0.900024 -0.894287,-2c0,-1.100098 0.595947,-2 1.324463,-2c1.412598,0 1.590942,-0.64917 3.159668,-11.5c1.417114,-9.799805 3.583374,-22.730103 4.091064,-24.417236c1.307373,-4.345581 3.298584,6.491455 7.911377,43.059204c0.507935,4.026367 0.905151,4.710449 2.994995,5.157104c1.325317,0.283325 3.091553,0.106934 3.925171,-0.391968c0.83374,-0.498901 2.950806,-0.907104 4.704712,-0.907104c2.765381,0 3.188721,0.317017 3.188721,2.388672c0,1.934692 0.590332,2.512573 3.105591,3.040161c1.708252,0.358276 3.452148,1.34375 3.87561,2.189697c0.642212,1.283081 1.026978,1.099487 2.319824,-1.107056c1.218384,-2.079346 1.32251,-2.952026 0.486572,-4.078369c-0.828735,-1.116699 -0.792603,-1.800293 0.163696,-3.095703c0.956787,-1.296265 0.980957,-1.755493 0.109497,-2.083496c-0.614868,-0.231201 -1.11792,-1.260742 -1.11792,-2.287598c0,-1.026855 -0.660156,-2.280029 -1.466919,-2.784912c-0.806885,-0.504883 -1.181519,-1.434692 -0.83252,-2.06604c0.348877,-0.631348 0.961792,-0.921753 1.361938,-0.645264c0.399902,0.276367 1.733276,-0.382202 2.962891,-1.463745c1.229492,-1.081543 3.289063,-2.414307 4.57666,-2.96167c1.477417,-0.628174 2.340942,-1.753662 2.340942,-3.05127c0,-1.130981 0.503052,-2.26123 1.117798,-2.511963c3.358765,-1.369263 20.744141,-3.271484 31.352905,-3.430542c1.873657,-0.027954 3.188721,-0.444702 2.922729,-0.926025c-0.561279,-1.015503 1.987183,-9.882813 3.051636,-10.618408c0.394531,-0.272705 1.795288,0.129395 3.112793,0.893677c2.82373,1.638062 9.149048,1.030762 11.331299,-1.088013c0.977173,-0.94873 3.222656,-1.354126 6.720093,-1.213013c4.962524,0.200317 7.437012,-0.642456 11.039551,-3.76001c0.737793,-0.638428 3.64978,-1.088501 6.471069,-1c4.703613,0.147461 5.446533,0.501465 8.942871,4.260986c3.797241,4.082642 3.849487,4.102661 12.369141,4.711182c4.705566,0.33606 9.188843,0.882813 9.962646,1.214722c0.977539,0.419434 1.595459,2.568848 2.023438,7.03894c0.637451,6.656006 1.508301,7.879395 3.15686,4.435059c0.526489,-1.100098 0.778076,-2 0.559204,-2c-0.218872,0 0.155151,-2.587524 0.830933,-5.75c0.676025,-3.162598 1.290894,-10.475098 1.366699,-16.25c0.075684,-5.775024 0.393677,-11.850098 0.706665,-13.5c0.511353,-2.69397 0.956665,-3.031494 4.365845,-3.307495c3.571655,-0.289307 3.796387,-0.487305 3.796387,-3.343628c0,-2.195068 0.495483,-3.18103 1.788574,-3.559204c1.123291,-0.328369 1.788574,-1.364014 1.788574,-2.783936c0,-3.301636 2.0802,-4.707764 6.437988,-4.352295l3.846313,0.313843l0.26416,-6.722778c0.221558,-5.635254 0.568359,-6.904785 2.143555,-7.84729c2.447144,-1.4646 3.684204,0.722778 4.299561,7.602783l0.447144,5l6.507568,0.649902c7.584106,0.757324 9.142456,1.860596 9.142456,6.472412c0,1.857788 0.402466,3.377686 0.894287,3.377686c0.491821,0 0.894287,-0.675049 0.894287,-1.5c0,-1.111084 1.043335,-1.5 4.024292,-1.5c3.428101,0 4.024292,0.296265 4.024292,2c0,3.648071 5.427734,8 9.977417,8c1.752808,0 1.802368,-0.48938 1.506836,-14.848511c-0.213623,-10.378418 -0.660034,-15.325562 -1.483276,-16.432983c-0.9823,-1.321899 -0.937744,-1.994263 0.268799,-4.053223c2.28064,-3.892212 3.236694,-18.835571 3.081177,-48.165283l-0.142944,-27l3.794922,-9c2.087158,-4.950073 5.39209,-12.776733 7.343872,-17.3927c2.681885,-6.342285 3.416748,-9.130371 3.008545,-11.41272c-0.351685,-1.966919 -0.088379,-3.578613 0.755005,-4.620728c0.993042,-1.226929 1.434082,-6.264526 1.890137,-21.587036c0.327515,-10.992798 0.811035,-20.385132 1.074951,-20.871948c1.163086,-2.14624 2.848511,4.476196 2.897217,11.385132c0.029175,4.125 0.452637,9.299927 0.94104,11.5c0.488281,2.199951 1.032471,7.731689 1.209229,12.292725c0.176758,4.561035 0.527954,8.523682 0.780518,8.80603c0.414551,0.463623 18.650269,2.468506 25.249756,2.776123l2.682861,0.125122l0.235718,-7c0.129517,-3.850098 0.601563,-7.900024 1.048706,-9c0.447266,-1.100098 1.053467,-6.385986 1.34729,-11.746704c0.501343,-9.151367 1.727539,-14.753296 3.229004,-14.753296c1.388916,0 1.682251,3.45874 1.278564,15.074707c-0.250854,7.215332 -0.020508,13.718506 0.574463,16.231812c0.546021,2.306396 0.941772,5.543457 0.879272,7.193481c-0.062622,1.649902 -0.142456,4.349976 -0.17749,6c-0.039673,1.847046 2.877319,9.725342 7.589722,20.5l7.654053,17.5l-0.71521,25.5c-0.433716,15.462646 -0.383301,27.27124 0.12793,30c0.463745,2.474976 0.919434,20.024902 1.012817,39c0.230713,46.98291 0.129639,45 2.296631,45c1.910278,0 2.49646,-2.56958 0.735962,-3.225708c-0.578735,-0.21582 -0.752197,-0.935669 -0.385376,-1.599609c0.906128,-1.639282 2.332397,-0.498413 2.332397,1.865234c0,2.225464 4.584717,4.080322 5.176514,2.094482c0.216187,-0.724731 1.542847,-0.012695 3.431885,1.842041c1.693726,1.662964 3.870361,3.02356 4.837158,3.02356c0.966553,0 1.757324,0.410156 1.757324,0.911499c0,1.36084 2.522827,0.686279 4.494873,-1.201782c0.953735,-0.913208 2.349731,-1.396118 3.102417,-1.07312c1.626465,0.697876 3.937988,-1.23999 4.918213,-4.123291c0.552124,-1.623657 1.574951,-2.111206 4.753418,-2.265991c2.385254,-0.116089 5.712891,-1.235107 8.094971,-2.72229c2.224609,-1.388794 5.074097,-2.525024 6.331909,-2.525024c1.945313,0 2.287231,0.448608 2.287231,3c0,1.649902 0.402344,3 0.894409,3c0.491821,0 0.900513,-0.5625 0.907837,-1.25c0.009521,-0.86499 0.216187,-0.911133 0.670776,-0.14978c0.36145,0.605225 1.553467,1.628174 2.64917,2.273193c1.675293,0.986328 1.909302,0.932007 1.472046,-0.341797c-0.694824,-2.025146 1.995972,-3.103882 3.729492,-1.495117c1.117188,1.036621 1.575073,0.928223 2.581665,-0.611084c0.673096,-1.029297 1.082275,-2.693481 0.90918,-3.69812c-0.172974,-1.004761 0.269775,-2.077515 0.984009,-2.384033c1.035156,-0.444214 1.313354,-3.123169 1.370728,-13.200317c0.039551,-6.953613 0.54248,-14.665649 1.117798,-17.137939c1.004883,-4.319092 1.209473,-4.528198 5.229614,-5.345093c3.960083,-0.804688 4.207153,-1.04541 4.624512,-4.505005c0.242798,-2.010254 0.495361,-5.904907 0.561646,-8.654907c0.14209,-5.906372 1.121826,-7.460815 3.607544,-5.725098c3.008911,2.101318 8.585815,1.522095 10.965332,-1.138794c1.968872,-2.20166 2.429077,-2.291992 6.697754,-1.314087c2.52124,0.577515 4.407593,1.369141 4.192017,1.759155c-1.191528,2.15564 6.567261,2.542236 9.040405,0.450562c2.000732,-1.692139 8.174194,-1.925171 13.361572,-0.50415c6.309814,1.728394 21.116821,2.255249 24.83374,0.883545c2.588501,-0.955322 3.637573,-0.974487 4.436401,-0.081177c1.289307,1.44165 9.081421,1.601563 8.290039,0.170044c-1.242676,-2.248413 10.491455,-0.101685 12.652466,2.314697c0.337158,0.376831 1.471436,0.685303 2.520752,0.685303c2.9552,0 4.054077,1.969727 4.054077,7.267334c0,4.430298 0.162476,4.809692 1.808716,4.225464c2.813477,-0.998413 7.043457,0.448975 8.165894,2.794312c0.635742,1.328125 0.981812,7.392334 0.923584,16.176025c-0.05481,8.237183 0.289551,14.669067 0.832275,15.544067c0.697144,1.124268 1.03772,1.184204 1.379395,0.242798c0.552979,-1.524292 3.836792,-1.611572 5.670288,-0.150513c1.010742,0.80542 0.569946,0.919312 -1.788696,0.462036c-3.018555,-0.585205 -3.060303,-0.552124 -1.172485,0.929688c2.304565,1.809082 9.221191,2.789307 9.221191,1.306763c0,-0.556641 0.597412,-0.755615 1.327759,-0.442261c0.783813,0.336304 1.71814,-0.245972 2.28064,-1.420898c0.523926,-1.095093 1.323608,-1.734497 1.776855,-1.421265c0.910889,0.629395 5.346191,-2.288818 5.346191,-3.517456c0,-0.425659 -0.503052,-0.753052 -1.11792,-0.727539c-3.112549,0.129272 -5.14209,-0.371338 -5.14209,-1.268555c0,-0.550049 0.943726,-1 2.097046,-1c1.153442,0 2.832642,-0.908691 3.731201,-2.019043c1.512817,-1.869263 1.906982,-4.128174 2.492554,-14.282837c0.120605,-2.09082 0.730469,-4.155029 1.355469,-4.586914c1.360718,-0.940308 2.251465,-10.936646 1.498169,-16.809326c-0.422485,-3.29187 -0.844238,-4.067017 -1.954224,-3.590576c-1.522095,0.652954 -1.517456,0.630615 0.997681,-4.886475c1.581177,-3.468994 1.592041,-3.871094 0.192017,-7.170166c-0.815796,-1.922241 -1.731079,-4.880981 -2.034058,-6.574951c-0.522827,-2.922974 0.032959,-3.62561 2.541138,-3.212402c0.347778,0.057373 0.870972,-1.351807 1.162109,-3.131592c0.688721,-4.206665 0.92334,-50.809082 0.356201,-70.735718c-0.242798,-8.525024 -0.108154,-20.98645 0.299072,-27.692139c0.901489,-14.850464 -0.259521,-36.103149 -2.039795,-37.333374c-1.027466,-0.710083 -1.015015,-1.276733 0.078247,-3.561157c0.715088,-1.494019 1.178467,-3.52002 1.029785,-4.501831c-0.457275,-3.021484 3.022095,-4.302246 12.973389,-4.775391c2.533691,-0.120361 2.934082,-0.541748 3.453247,-3.636108c0.626953,-3.737915 0.991333,-3.91626 7.255981,-3.550293c3.625854,0.211914 3.766357,0.103516 4.690063,-3.615601c0.523682,-2.108765 0.954346,-4.813965 0.957031,-6.011597c0.005859,-2.478394 3.888184,-6.32251 6.385742,-6.32251c1.343872,0 1.667847,-0.761108 1.667847,-3.918213c0,-5.421265 0.742798,-7.081787 3.16748,-7.081787c1.14502,0 3.114014,-0.438965 4.375854,-0.97522c2.170776,-0.922974 2.294434,-1.365723 2.303711,-8.25c0.005371,-4.001221 0.261963,-8.980713 0.57019,-11.065674c0.535034,-3.621338 0.605835,-3.688354 1.581421,-1.5c0.764526,1.714355 1.786255,2.290894 4.060791,2.290894c2.612061,0 3.13855,-0.416016 3.746948,-2.959839c0.478638,-2.001343 0.354858,-3.210571 -0.38269,-3.734619c-1.678589,-1.192627 -6.419189,-0.947144 -7.619019,0.394409c-0.834595,0.93335 -1.073242,0.121094 -1.073242,-3.655029c0,-4.640015 0.072388,-4.781616 1.635498,-3.199951c1.077881,1.090942 3.211792,1.655029 6.26001,1.655029c4.301025,0 4.634033,-0.175049 4.758789,-2.5c0.07373,-1.375 0.174316,-3.0625 0.223511,-3.75c0.064331,-0.897827 -1.800415,-1.25 -6.617676,-1.25l-6.707275,0l-0.280151,-3.25c-0.267578,-3.103394 0.896973,-4.370117 2.068848,-2.25c0.800781,1.448853 7.334717,1.239502 7.802979,-0.25c0.215942,-0.6875 0.13855,-2.375 -0.171875,-3.75c-0.503662,-2.229248 -1.044189,-2.508911 -4.992188,-2.58252l-4.427612,-0.08252l-0.273682,-5.875854c-0.479858,-10.302002 -0.361938,-10.459229 7.86084,-10.459229c6.260376,0 7.223267,0.245361 8.092041,2.060791c1.350098,2.821045 4.632935,2.180176 5.434326,-1.060791c0.340088,-1.375 0.664673,-8.349854 0.721191,-15.5c0.102905,-13.024658 0.847778,-17.036377 2.764893,-14.892578c0.60144,0.672485 1.044189,6.912842 1.155029,16.278809c0.192017,16.2229 0.432129,17.064697 4.874878,17.098633c1.373291,0.010254 2.012207,0.616333 2.012207,1.908203c0,1.981689 -1.646118,3.106934 -4.544678,3.106934c-1.736572,0 -2.075439,0.880737 -1.731201,4.500122c0.293945,3.089722 1.872803,4.629272 4.4104,4.300049c1.7948,-0.23291 2.312622,0.140503 2.312622,1.668335c0,1.517212 -0.871216,2.161011 -3.800903,2.808716c-3.143799,0.695313 -3.800659,1.235718 -3.800659,3.126709c0,3.45874 2.951782,6.040771 5.299805,4.63562c1.631714,-0.97644 1.988159,-0.776611 2.782471,1.559326c0.500977,1.473633 1.905762,4.001343 3.121582,5.616943c2.869507,3.813354 2.796021,5.57605 -0.248779,5.967896c-3.159912,0.406616 -3.808838,4.108276 -1.255737,7.164307c1.195068,1.43042 2.009277,4.259888 2.428467,8.43811c0.429077,4.275879 1.100708,6.567505 2.100586,7.165894c0.808228,0.483765 4.666504,1.376709 8.57373,1.984497c3.907227,0.607666 7.518433,1.569214 8.024536,2.136963c0.516357,0.578857 0.834595,4.632202 0.724609,9.22937c-0.282959,11.849121 -0.108398,12.344116 4.637939,13.140015c4.356323,0.730469 4.951172,1.338257 5.788208,5.914673c0.550903,3.012085 0.595703,3.032959 6.787964,3.149536c3.428467,0.064575 6.918579,0.466797 7.755737,0.893799c0.837158,0.427124 2.019897,0.432373 2.628418,0.011841c1.719971,-1.188599 21.599121,-1.41394 22.843628,-0.258911c0.599365,0.556274 1.886963,0.728638 2.861206,0.382935c2.483643,-0.88147 32.375244,-1.205566 32.844604,-0.356201c0.21167,0.383179 1.281982,0.436157 2.378296,0.117798c1.096313,-0.318481 3.240356,-0.672119 4.76416,-0.785889c1.523682,-0.113647 3.237671,-0.529541 3.808594,-0.924072c0.570923,-0.394653 1.73877,-0.484009 2.594971,-0.198853c3.07019,1.022705 14.242554,0.876343 23.319458,-0.305298c8.029785,-1.045288 9.516846,-1.001953 11.335205,0.330444c1.151367,0.843506 2.224121,1.131958 2.383789,0.640991c0.159668,-0.490845 4.918457,-1.206421 10.574707,-1.589844c5.65625,-0.383545 10.525146,-0.854614 10.819336,-1.046997c0.294678,-0.192261 4.800537,-0.801392 10.013428,-1.35376c6.42334,-0.680542 10.569824,-1.658569 12.865967,-3.034546c1.863281,-1.116699 3.965576,-2.030396 4.672119,-2.030396c0.706299,0 1.994873,-0.719116 2.863281,-1.598022c0.868408,-0.878784 2.006592,-1.302368 2.529785,-0.940918c0.669189,0.462524 0.950439,151.41687 0.950439,510.0979l0,509.440918l-1159,0l-1159.000092,0l0,-401.833252zm1380.679535,-350.404419c0.131104,-5.080688 0.540283,-9.693237 0.909302,-10.25c0.368896,-0.556763 0.730957,-3.104492 0.803955,-5.661865c0.119507,-4.170044 -0.048706,-4.596313 -1.631958,-4.133301c-0.970947,0.283936 -1.789307,1.251221 -1.818604,2.149536c-0.707886,21.759521 -0.630615,27.133423 0.390503,27.133423c0.78479,0 1.178101,-2.699097 1.346802,-9.237793zm426.680908,-14.762207c0,-0.550049 -0.603638,-1 -1.341431,-1c-0.737671,0 -1.341431,0.449951 -1.341431,1c0,0.549927 0.60376,1 1.341431,1c0.737793,0 1.341431,-0.450073 1.341431,-1zm27.849121,-2c2.536133,0 3.929199,-1.325806 3.055176,-2.907593c-0.284302,-0.514038 -2.428101,-0.218506 -4.946045,0.681885c-3.574463,1.278198 -4.246582,1.855591 -3.43457,2.949829c0.700562,0.94397 1.295288,1.041382 1.942017,0.318237c0.512695,-0.573242 2.035278,-1.042358 3.383423,-1.042358zm-1693.017426,-13.5c0,-0.825073 -0.652893,-1.5 -1.450905,-1.5c-1.188332,0 -1.249489,0.271484 -0.337677,1.5c1.40181,1.888672 1.788582,1.888672 1.788582,0zm-124.977051,-2.916748c0.122971,-0.50415 -0.279465,-1.104126 -0.894302,-1.333252c-0.614822,-0.229248 -1.117844,0.333252 -1.117844,1.25c0,1.693359 1.603287,1.759766 2.012146,0.083252zm119.611313,-2.583252c0,-0.550049 -0.40242,-1 -0.894295,-1c-0.491852,0 -0.894287,0.449951 -0.894287,1c0,0.549927 0.402435,1 0.894287,1c0.491875,0 0.894295,-0.450073 0.894295,-1zm-9.390045,-12.5c0,-0.550049 -1.509117,-1.139771 -3.353592,-1.310425c-3.144943,-0.291016 -4.184479,0.547852 -2.714966,2.19104c0.931297,1.041382 6.068558,0.295898 6.068558,-0.880615zm14.403694,-2.324463c0.094101,-2.093384 -0.272919,-3.175537 -1.076981,-3.175537c-1.394379,0 -2.624191,4.329468 -1.703163,5.995972c1.098434,1.987427 2.633942,0.429565 2.780144,-2.820435zm-8.600281,1.337158c0.607124,-0.817993 0.849205,-2.229248 0.537994,-3.136108c-0.518158,-1.509888 -0.714989,-1.497925 -2.3358,0.142212c-0.973434,0.985107 -1.76989,2.396362 -1.76989,3.136108c0,1.799194 2.19165,1.711792 3.567696,-0.142212zm13.42382,-1.571777c0,-0.517578 -0.603634,-0.940918 -1.341434,-0.940918c-1.382915,0 -1.776684,1.179932 -0.769543,2.30603c0.714443,0.799072 2.110977,-0.104126 2.110977,-1.365112zm-20.808701,-6.940918c0.300476,0 1.283928,0.746338 2.185364,1.658691c2.297905,2.325317 6.103271,0.406006 6.103271,-3.078247c0,-3.184814 -1.24752,-3.983643 -3.782196,-2.421753c-1.11689,0.68811 -2.73494,1.130615 -3.595695,0.983276c-0.860748,-0.147217 -1.565002,0.179321 -1.565002,0.725586c0,0.546265 -0.859337,1.137085 -1.909676,1.312744c-1.050346,0.175903 -2.507309,1.331055 -3.237679,2.567261c-1.263,2.137573 -1.180367,2.317505 1.686096,3.672241l3.014107,1.424683l0.27758,-3.422363c0.152672,-1.882202 0.523346,-3.422119 0.82383,-3.422119zm130.806389,5.05896c0,-0.517456 -0.402428,-1.219116 -0.894287,-1.55896c-0.491848,-0.339966 -0.894291,0.083496 -0.894291,0.940918c0,0.857422 0.402443,1.559082 0.894291,1.559082c0.491859,0 0.894287,-0.423462 0.894287,-0.94104zm0,-7.05896c0,-1.100098 -0.402428,-2 -0.894287,-2c-0.491848,0 -0.894291,0.899902 -0.894291,2c0,1.099976 0.402443,2 0.894291,2c0.491859,0 0.894287,-0.900024 0.894287,-2zm-116.034149,-0.513794c-0.329437,-1.453369 -2.246719,-1.199341 -2.711304,0.359253c-0.261208,0.876221 0.180641,1.220215 1.266846,0.986328c0.917458,-0.197632 1.567436,-0.802979 1.444458,-1.345581zm116.411732,-9.032227c0.632263,-2.816895 -0.044624,-4.802124 -1.33366,-3.911377c-1.064125,0.735474 -1.095238,6.457397 -0.035149,6.457397c0.43856,0 1.054462,-1.145752 1.368809,-2.546021zm1899.989063,-40.453979c0,-0.550049 -0.603638,-1 -1.341431,-1c-0.737671,0 -1.341431,0.449951 -1.341431,1c0,0.549927 0.60376,1 1.341431,1c0.737793,0 1.341431,-0.450073 1.341431,-1zm-7.899414,-3.895386c0.163818,-0.492432 4.724609,-1.154297 10.135132,-1.470581c5.410522,-0.316406 12.654175,-1.273071 16.09729,-2.126099c3.442993,-0.853027 10.686646,-1.724365 16.097168,-1.936401c5.4104,-0.212036 10.462036,-0.666382 11.225952,-1.009888c0.763916,-0.343384 2.093628,-1.95874 2.955322,-3.589478c1.404785,-2.659668 1.602539,-7.102539 1.919922,-43.128662c0.277344,-31.525757 0.603638,-40.340942 1.516357,-40.988281c1.21521,-0.861938 3.840942,-1.049072 17.404663,-1.23999c4.506592,-0.063354 8.514282,-0.471802 8.906006,-0.907471c0.391846,-0.435669 0.618652,-4.721802 0.50354,-9.524658c-0.140991,-5.893799 0.161621,-9.249268 0.931274,-10.321533c0.776978,-1.083008 3.954468,-1.958374 9.979004,-2.748901c4.86145,-0.638062 9.149658,-1.374756 9.529541,-1.637329c1.343994,-0.928833 -0.219727,-4.248169 -2.570679,-5.456909c-1.383179,-0.710938 -5.855469,-1.189819 -10.655518,-1.140991c-6.743408,0.068726 -8.272339,-0.189331 -8.272339,-1.396606c0,-1.943726 -0.577271,-1.869385 -3.488525,0.448486c-1.571045,1.251099 -2.862183,1.625854 -3.672607,1.06604c-0.687012,-0.474854 -1.605835,-0.616821 -2.042358,-0.31543c-0.701782,0.485107 -4.756226,0.494507 -23.885254,0.055664c-2.705078,-0.062134 -6.327026,-0.045776 -8.048584,0.036255c-1.721558,0.082031 -5.142212,0.150146 -7.60144,0.151611c-2.459351,0.001343 -7.08728,0.080322 -10.284302,0.175537c-3.197144,0.095093 -7.623901,0.104614 -9.83728,0.021362c-5.535278,-0.208374 -19.160767,0.568115 -24.693604,1.407349l-4.572144,0.693481l-0.570068,7.540283c-0.730591,9.66394 -0.748779,109.989258 -0.020752,114.059937c0.474365,2.651489 0.994019,3.124146 3.800781,3.456787c6.382202,0.756714 8.919556,0.708862 9.213501,-0.173584zm-70.95166,-186.47644c0.379883,-3.71936 -0.880005,-5.150391 -3.273926,-3.717773c-1.571899,0.940674 -2.077637,3.989502 -1.145996,6.90918c0.056152,0.175659 1.007446,0.175659 2.114136,0c1.465332,-0.232788 2.092041,-1.099976 2.305786,-3.191406zm3.730713,-11.569214c0,-1.617554 -0.402466,-3.219116 -0.894287,-3.55896c-0.532227,-0.367798 -0.894409,0.822998 -0.894409,2.940918c0,1.957397 0.402466,3.559082 0.894409,3.559082c0.491821,0 0.894287,-1.323486 0.894287,-2.94104zm6.413086,-2.713989c2.230225,-2.256836 2.057007,-4.988525 -0.361206,-5.695557c-2.639648,-0.771973 -3.270752,0.178101 -2.724365,4.100586c0.517822,3.717773 0.828979,3.878662 3.085571,1.594971zm10.578369,-3.952026c0,-0.766113 -0.80481,-1.392944 -1.788452,-1.392944c-1.683594,0 -2.431763,1.94751 -1.254028,3.264404c0.870239,0.973145 3.04248,-0.363037 3.04248,-1.87146zm-9.121704,-9.593018c0.590088,-0.659912 1.073242,-2.234985 1.073242,-3.5c0,-2.276733 -0.17981,-2.365967 -5.541626,-2.751099c-0.834595,-0.059814 -1.807251,-0.432983 -2.161377,-0.828857c-1.12915,-1.262695 -3.028687,-0.77356 -3.028687,0.780029c0,0.841064 0.798218,1.5 1.81665,1.5c1.643555,0 2.060425,0.626587 3.159668,4.75c0.424072,1.589966 3.277588,1.620483 4.682129,0.049927zm-0.912231,-12.049927c0.893799,-1.218994 1.401489,-3.982422 1.194092,-6.5c-0.057373,-0.696655 -1.290771,-1.250122 -2.785889,-1.250122c-2.514404,0 -2.682861,0.240723 -2.682861,3.833374c0,2.108398 0.268311,4.133423 0.596191,4.5c0.942871,1.054565 2.679565,0.779053 3.678467,-0.583252zm-6.063232,-7.338867c0,-5.403931 -1.502808,-6.185791 -9.166504,-4.769287c-2.790405,0.515747 -3.353516,1.023071 -3.353516,3.02124c0,2.96228 2.456787,4.171021 8.272217,4.069702c3.787964,-0.065918 4.247803,-0.317261 4.247803,-2.321655zm-1668.745499,-25.911255c0,-0.76001 -0.40242,-1.660034 -0.894272,-2c-0.509232,-0.351807 -0.894302,0.509399 -0.894302,2c0,1.490723 0.385071,2.352051 0.894302,2c0.491852,-0.339844 0.894272,-1.239746 0.894272,-2zm8.942917,-3.61792c0,-0.550049 -0.402435,-0.721924 -0.894302,-0.38208c-0.491852,0.339966 -0.894287,1.068115 -0.894287,1.618164c0,0.549927 0.402435,0.721802 0.894287,0.381836c0.491867,-0.339844 0.894302,-1.067871 0.894302,-1.61792zm2.959915,-15.317871c1.022888,-0.867188 1.269714,-1.613281 0.670715,-2.0271c-1.44043,-0.995605 -1.133163,-3.664917 0.583435,-5.068604c1.305298,-1.067139 1.352341,-1.493164 0.319,-2.885498c-1.1185,-1.506836 -1.347168,-1.496948 -2.953491,0.128662c-1.663467,1.683228 -1.793579,1.681641 -2.915924,-0.034668c-0.794846,-1.215576 -1.375504,-1.43335 -1.795456,-0.673706c-0.341278,0.617554 0.093445,2.005005 0.966187,3.083374c1.216415,1.503174 1.341263,2.235229 0.53479,3.136963c-1.392502,1.557129 -1.328033,2.325073 0.353226,4.205078c1.693176,1.893188 2.147278,1.907715 4.237518,0.135498zm5.982986,-1.064209c0,-0.824951 -0.603653,-1.5 -1.341431,-1.5c-0.737808,0 -1.341461,0.675049 -1.341461,1.5c0,0.825073 0.603653,1.5 1.341461,1.5c0.737778,0 1.341431,-0.674927 1.341431,-1.5zm9.39003,-7.5c-0.717575,-1.29834 -3.130005,-1.29834 -3.130005,0c0,0.550049 0.828644,1 1.841339,1c1.012787,0 1.592651,-0.449951 1.288666,-1zm-12.467377,-5.095337c1.060089,-1.917847 -1.528427,-5.904663 -3.83374,-5.904663c-1.197189,0 -1.894272,0.439941 -1.584686,1c0.303986,0.550049 0.126556,1 -0.394379,1c-1.500961,0 -0.674927,2.381348 1.288681,3.7146c2.253525,1.530396 3.748688,1.593262 4.524124,0.190063zm-0.792526,-8.132202c4.15979,0.524414 5.647263,-0.474609 5.617584,-3.772461c-0.010559,-1.174072 -0.211502,-1.119873 -0.925064,0.25c-1.153809,2.21521 -3.140564,2.255981 -3.887283,0.080078c-0.713745,-2.080078 1.085388,-3.421631 3.630356,-2.70752c1.057144,0.296753 2.164352,0.101074 2.460556,-0.434814c0.296188,-0.535889 -0.565369,-1.282471 -1.914597,-1.658936c-1.349213,-0.376709 -3.160583,-1.397705 -4.025375,-2.269043c-1.46788,-1.479248 -1.473511,-1.706299 -0.084961,-3.422119c1.176346,-1.453369 1.22464,-1.834839 0.23082,-1.823975c-2.801361,0.030396 -5.235809,1.260254 -4.651917,2.350098c0.334824,0.625 -0.081818,0.509644 -0.925949,-0.256348c-2.127777,-1.930542 -2.548553,-1.0979 -2.994522,5.927002c-0.391174,6.161255 0.86174,10.082764 2.600311,8.138672c0.44841,-0.501465 2.639954,-0.681641 4.870041,-0.400635zm7.894165,-13.772461c-0.708191,-1.281494 -1.341431,-1.281494 -1.341431,0c0,0.550049 0.426224,1 0.947052,1c0.52092,0 0.698364,-0.449951 0.394379,-1zm4.508224,-5.066528c0.823105,-1.489136 -0.131195,-2.298706 -1.843506,-1.564087c-0.7901,0.339111 -1.186188,1.069702 -0.880066,1.623535c0.724899,1.311523 1.980942,1.28418 2.723572,-0.059448zm-16.794159,-6.943359c-0.62825,-1.124634 -1.270248,-1.514282 -1.458038,-0.884399c-0.184494,0.619141 0.216583,1.516602 0.891327,1.994629c1.761139,1.247437 1.819534,1.133057 0.566711,-1.110229zm4.684479,-3.547729c0,-2.150391 -1.805573,-2.770264 -4.088974,-1.403687c-1.921814,1.150024 -1.985855,1.392212 -0.656036,2.479614c1.77121,1.448242 4.74501,0.773926 4.74501,-1.075928zm5.365723,0.557617c1.084793,-0.783936 0.956375,-0.97229 -0.670715,-0.984619c-1.106659,-0.008545 -2.012146,0.43457 -2.012146,0.984619c0,1.25293 0.94902,1.25293 2.682861,0zm1380.784012,421.455933c0,-1.534058 0.30188,-2.381958 0.670776,-1.884155c0.368896,0.497803 0.991577,1.175049 1.383789,1.504883c0.392212,0.330078 0.090332,1.177856 -0.670776,1.884155c-1.192505,1.106812 -1.383789,0.898804 -1.383789,-1.504883zm190.483887,-18.514893c0,-0.58252 -0.402466,-0.780884 -0.894287,-0.440918c-0.491943,0.339844 -0.894287,0.189575 -0.894287,-0.333984c0,-0.523682 0.603638,-1.21106 1.341431,-1.52771c0.912476,-0.391479 1.341431,0.053955 1.341431,1.393066c0,1.082642 -0.201294,1.968628 -0.447144,1.968628c-0.245972,0 -0.447144,-0.476685 -0.447144,-1.059082zm-1180.464294,-3.190918c-0.000671,-0.137573 -0.59845,-4.044189 -1.328247,-8.681519c-1.336853,-8.494995 -1.295227,-9.764282 0.285217,-8.672119c1.135193,0.784546 4.007324,15.287476 3.286072,16.592651c-0.482666,0.873169 -2.239563,1.469238 -2.243042,0.760986zm1168.438538,-9.664673c-0.287964,-0.520996 -0.142456,-1.210571 0.323608,-1.532593c0.46582,-0.322021 1.082642,-0.15918 1.370605,0.361816c0.287842,0.520996 0.142334,1.210571 -0.323608,1.532593c-0.46582,0.322021 -1.082764,0.15918 -1.370605,-0.361816zm0.040283,-5.820923c-0.974976,-1.09021 -0.555786,-2.181396 1.254028,-3.264404c1.501099,-0.898438 1.788452,-0.760498 1.788452,0.857788c0,1.927246 -2.033081,3.5354 -3.04248,2.406616zm-1911.632744,-9.823486c0,-0.857422 0.402435,-1.280884 0.894287,-0.940918c1.157135,0.799683 1.157135,2.5 0,2.5c-0.491852,0 -0.894287,-0.70166 -0.894287,-1.559082zm19.674385,-1.381958c0,-0.517456 0.402435,-1.219116 0.894287,-1.55896c0.491875,-0.339966 0.894287,0.083496 0.894287,0.940918c0,0.857422 -0.402412,1.559082 -0.894287,1.559082c-0.491852,0 -0.894287,-0.423462 -0.894287,-0.94104zm-4.443016,-5.273804c0.027725,-1.254639 2.654427,-5.765015 2.654427,-4.558105c0,0.335083 0.232445,1.286621 0.516556,2.11438c0.312538,0.910767 -0.217133,1.944214 -1.341438,2.617065c-1.43409,0.858154 -1.851456,0.818604 -1.829544,-0.17334zm-8.942902,-6.12207c-0.017601,-1.138306 0.991852,-2.267578 2.654434,-2.969238c1.475571,-0.622803 2.682869,-1.483643 2.682869,-1.913086c0,-0.429443 0.603661,-0.780762 1.341431,-0.780762c2.090782,0 1.575485,2.682373 -0.670715,3.491455c-1.106667,0.398682 -2.359222,0.659302 -2.783386,0.579224c-0.424164,-0.080078 -1.316841,0.658691 -1.983711,1.641724c-1.160606,1.711182 -1.213745,1.709106 -1.240921,-0.049316zm32.166008,-6.477051c0,-0.524048 1.021988,-1.171387 2.271149,-1.438354c1.43335,-0.306396 2.149788,-0.072754 1.942123,0.633423c-0.408234,1.387939 -4.213272,2.11499 -4.213272,0.804932zm-31.300156,-2.627075c0,-0.79248 0.360222,-1.689941 0.800568,-1.994263c0.920601,-0.63623 2.030655,1.936035 1.224464,2.837402c-0.959564,1.07312 -2.025032,0.629517 -2.025032,-0.84314zm8.048607,-0.132324c0,-0.931274 0.608498,-1.441406 1.490883,-1.25c2.243591,0.486572 2.551689,2.823364 0.372208,2.823364c-1.098457,0 -1.863091,-0.645752 -1.863091,-1.573364zm47.32476,-7.676636c-0.039955,-0.137573 -0.1539,-1.487549 -0.253159,-3c-0.231705,-3.532104 2.309498,-3.76123 3.705925,-0.334106c0.792873,1.945801 0.719566,2.529541 -0.376678,3c-1.407509,0.604004 -2.94899,0.771362 -3.076088,0.334106zm982.228714,-29.25c-0.009888,-2.200073 0.1651,-3.217773 0.388916,-2.261719c0.223877,0.956055 0.231995,2.756104 0.018066,4c-0.213867,1.244019 -0.397034,0.46167 -0.406982,-1.738281zm-344.190552,-6.460938c0.326477,-4.37854 0.822083,-18.666016 1.101257,-31.75c0.556274,-26.068481 2.118591,-34.500244 2.271851,-12.261353c0.114868,16.661621 0.088318,21.048096 -0.183167,30.22229c-0.118042,3.987427 0.077942,9.861206 0.435364,13.052856c0.681213,6.081055 -0.17865,8.697144 -2.858582,8.697144c-1.153625,0 -1.270264,-1.210693 -0.766724,-7.960938zm-622.692043,-55.455811c-0.038811,-1.054077 0.172604,-1.644775 0.469769,-1.3125c0.297176,0.332275 0.328918,1.194824 0.070564,1.916748c-0.285461,0.797607 -0.497402,0.560791 -0.540333,-0.604248zm499.837643,-56.642334c0,-1.784668 0.372528,-2.801514 0.894287,-2.440918c1.164398,0.804688 1.164398,5.5 0,5.5c-0.491852,0 -0.894287,-1.376587 -0.894287,-3.059082zm-249.506958,-153.107666c0,-2.841675 0.147644,-4.979126 0.328125,-4.75c0.761307,0.966675 1.173126,9.916626 0.456345,9.916626c-0.431488,0 -0.78447,-2.324951 -0.78447,-5.166626zm-0.242157,-7.4375c-0.358719,-0.401001 -0.605087,-3.241577 -0.547592,-6.3125l0.104553,-5.583374l0.807083,5.442017c0.844666,5.695435 0.732697,7.680298 -0.364044,6.453857zm44.203583,-3.395874c0,-1.375 0.203018,-1.9375 0.451096,-1.25c0.248077,0.6875 0.248077,1.8125 0,2.5c-0.248077,0.6875 -0.451096,0.125 -0.451096,-1.25zm-0.141205,-5.440918c0,-1.75647 0.536667,-2.015137 1.303238,-0.628174c0.282959,0.512085 0.10553,1.213623 -0.394348,1.559082c-0.499924,0.345459 -0.90889,-0.073486 -0.90889,-0.930908zm-45.724243,-13.309082c-0.063507,-2.0625 -0.229034,-5.662598 -0.367828,-8c-0.138794,-2.337524 0.11438,-4.25 0.562607,-4.25c0.448212,0 0.820419,2.587402 0.827133,5.75c0.006775,3.162476 0.254852,6.762451 0.551498,8c0.323547,1.349976 0.139786,2.25 -0.459412,2.25c-0.549179,0 -1.050507,-1.6875 -1.113998,-3.75zm3.706284,-19.94104c0.009933,-3.473511 0.25444,-4.392456 0.880615,-3.30896c1.137177,1.967773 1.137177,6.714111 0,7.5c-0.549438,0.379639 -0.889008,-1.236206 -0.880615,-4.19104zm38.511368,1.274292c-0.038818,-1.054077 0.172592,-1.644775 0.469772,-1.3125c0.297165,0.332275 0.328918,1.194824 0.070541,1.916748c-0.285446,0.797607 -0.497391,0.560791 -0.540314,-0.604248zm953.242798,-323.08313c0,-2.791748 2.166382,-3.447388 3.034424,-0.918213c0.90686,2.642944 0.62439,3.418213 -1.24585,3.418213c-1.311646,0 -1.788574,-0.666626 -1.788574,-2.5z" id="path2177"/>
 </g>
</svg>