<?xml version="1.0" encoding="UTF-8" standalone="no"?>
<!-- Created with clker.com Crayon tracing tool http://www.clker.com) -->
<svg xmlns="http://www.w3.org/2000/svg" width="389.5" height="515">
<path style="opacity:1;fill:#000000;fill-rule:evenodd;stroke:#000000;stroke-width:0px;stroke-linecap:butt;stroke-linejoin:miter;stroke-opacity:1" d="M 82.25 30.25 Q 84 29.5  86.75 33.75 Q 89.5 38  89.75 39 L 90 40 L 92.25 39 Q 94.5 38  94.75 37 Q 95 36  102.5 37.25 L 110 38.5 L 112.25 42.75 Q 114.5 47  115.75 52.25 Q 117 57.5  121 58.25 L 125 59 L 123 61.25 Q 121 63.5  120.5 65 Q 120 66.5  121.5 69.75 Q 123 73  121.75 73.5 Q 120.5 74  119.75 76.75 Q 119 79.5  115.5 79.75 L 112 80 L 112.5 82.25 Q 113 84.5  114.75 85.25 Q 116.5 86  115 89 Q 113.5 92  113.25 94.25 L 113 96.5 L 116.25 95.75 Q 119.5 95  121.75 92.75 L 124 90.5 L 124.25 90.75 Q 124.5 91  124.25 96.75 Q 124 102.5  124.5 103 Q 125 103.5  137 105 L 149 106.5 L 149.25 106.75 Q 149.5 107  154 128 Q 158.5 149  162.5 167 Q 166.5 185  168 192.5 Q 169.5 200  173.25 216.25 Q 177 232.5  178 235.25 L 179 238 L 186 237.25 Q 193 236.5  194.75 235.75 L 196.5 235 L 199 229.5 Q 201.5 224  204 209 Q 206.5 194  209.25 181.5 Q 212 169  213.25 168.5 L 214.5 168 L 216 153 Q 217.5 138  218 132 Q 218.5 126  218 123.5 Q 217.5 121  218.25 105.5 L 219 90 L 233 87.25 Q 247 84.5  252.25 81.25 Q 257.5 78  261.25 73.75 Q 265 69.5  268 68 Q 271 66.5  277 66 L 283 65.5 L 288 71.25 L 293 77 L 299.25 80 Q 305.5 83  308.75 84.25 Q 312 85.5  313 86 Q 314 86.5  325 89 Q 336 91.5  337.5 91.75 L 339 92 L 339.25 98 Q 339.5 104  336.5 117 Q 333.5 130  330 140 Q 326.5 150  326.25 155 L 326 160 L 324.75 160.5 Q 323.5 161  323.5 173 Q 323.5 185  324.75 189.5 Q 326 194  327.5 194 L 329 194 L 328.25 196.5 Q 327.5 199  329.5 211.5 Q 331.5 224  331.25 232 Q 331 240  327.75 240.5 L 324.5 241 L 324 267.5 Q 323.5 294  320 303.5 Q 316.5 313  316 324 L 315.5 335 L 318 339 L 320.5 343 L 319 352.5 Q 317.5 362  315.5 385.5 Q 313.5 409  312.5 421 Q 311.5 433  312.25 435.25 L 313 437.5 L 310.75 441.75 Q 308.5 446  309 449 Q 309.5 452  308.25 456.75 L 307 461.5 L 299 461.75 L 291 462 L 289.75 446 Q 288.5 430  287 405 Q 285.5 380  284.25 363.75 Q 283 347.5  284.75 345.25 L 286.5 343 L 285.5 338 Q 284.5 333  285 329.5 Q 285.5 326  282.5 310 L 279.5 294 L 278.5 297.5 Q 277.5 301  274.5 318 Q 271.5 335  270.5 336.5 L 269.5 338 L 271 345 Q 272.5 352  271.5 362 Q 270.5 372  270.5 372.5 Q 270.5 373  267 390.5 Q 263.5 408  261 424 Q 258.5 440  258.5 440.5 Q 258.5 441  256.75 452 L 255 463 L 248.25 463 Q 241.5 463  240.75 461.25 Q 240 459.5  237.5 459.5 L 235 459.5 L 232 461.5 Q 229 463.5  225.5 464 Q 222 464.5  214.25 462.75 L 206.5 461 L 207.75 459.25 Q 209 457.5  215 456 L 221 454.5 L 222.75 450.75 Q 224.5 447  227 439 Q 229.5 431  230.5 424.5 Q 231.5 418  234.5 365.5 Q 237.5 313  238.25 276.5 Q 239 240  236.25 239 L 233.5 238 L 234.5 215 L 235.5 192 L 227 209.5 Q 218.5 227  216.5 235 L 214.5 243 L 211.25 244.25 Q 208 245.5  205.5 247 Q 203 248.5  202.5 251 Q 202 253.5  202 255 L 202 256.5 L 196.5 256.5 Q 191 256.5  190 256.5 L 189 256.5 L 186 259 Q 183 261.5  178.25 260.25 Q 173.5 259  176.25 254.75 L 179 250.5 L 175.25 251.75 Q 171.5 253  170 254.5 L 168.5 256 L 168.75 250.75 Q 169 245.5  165.5 241.5 Q 162 237.5  160.75 236.75 L 159.5 236 L 160.5 232 Q 161.5 228  157.5 218 Q 153.5 208  150 200.5 Q 146.5 193  142.25 180.25 Q 138 167.5  137 167.25 L 136 167 L 135 171.75 Q 134 176.5  132.25 177.75 Q 130.5 179  132 188 Q 133.5 197  137 209.5 Q 140.5 222  142.5 247.5 Q 144.5 273  145 287.5 Q 145.5 302  148.5 312.5 Q 151.5 323  155.75 328.25 Q 160 333.5  160.5 334 L 161 334.5 L 157.5 336 Q 154 337.5  151.5 337.25 L 149 337 L 149.75 343.5 L 150.5 350 L 149.75 350.75 Q 149 351.5  140.25 351.25 L 131.5 351 L 132.5 364.5 Q 133.5 378  131 406.5 Q 128.5 435  130 448 Q 131.5 461  128.25 462.25 L 125 463.5 L 122.75 462.75 Q 120.5 462  120 460.5 Q 119.5 459  120 444.5 Q 120.5 430  117.5 415 Q 114.5 400  112.5 390 Q 110.5 380  111.25 366 L 112 352 L 109.5 352 Q 107 352  105.5 350.75 Q 104 349.5  101.75 349.75 Q 99.5 350  96.75 349.25 Q 94 348.5  93.25 349.25 L 92.5 350 L 94 360.5 Q 95.5 371  94 387 Q 92.5 403  91.5 409.5 Q 90.5 416  90.5 437.5 Q 90.5 459  90 461 L 89.5 463 L 88.25 463.5 Q 87 464  85.25 462 Q 83.5 460  81.75 462.25 Q 80 464.5  75.25 464.75 L 70.5 465 L 70.75 463.75 Q 71 462.5  73.25 461.25 Q 75.5 460  78.5 449.5 Q 81.5 439  80 425 Q 78.5 411  75 393.5 Q 71.5 376  72.25 365 Q 73 354  70 353.5 Q 67 353  67.5 349.75 L 68 346.5 L 62 347.75 L 56 349 L 57 345.5 Q 58 342  55 340.75 L 52 339.5 L 54.75 334.75 Q 57.5 330  60.5 322 Q 63.5 314  62 270.5 Q 60.5 227  60.5 226.5 Q 60.5 226  63.25 208.5 L 66 191 L 63.75 192.5 Q 61.5 194  59.25 197.25 Q 57 200.5  51.5 199 Q 46 197.5  40.25 190.75 L 34.5 184 L 35.25 181.75 Q 36 179.5  37.25 178.75 Q 38.5 178  39.75 172.75 L 41 167.5 L 36 161.5 Q 31 155.5  28.75 153.25 L 26.5 151 L 28 148.5 Q 29.5 146  35.5 141 L 41.5 136 L 43 124.5 L 44.5 113 L 46.25 111.75 Q 48 110.5  53.5 110 Q 59 109.5  65.75 106.75 Q 72.5 104  72.25 98.75 L 72 93.5 L 75.25 93.75 Q 78.5 94  79.75 97.75 Q 81 101.5  83.5 101.5 L 86 101.5 L 86.25 101.25 Q 86.5 101  85 96.5 Q 83.5 92  83.5 91.5 Q 83.5 91  85.75 88.5 Q 88 86  87.75 83 L 87.5 80 L 85.75 80.25 Q 84 80.5  82.25 80.25 Q 80.5 80  78.5 78.5 Q 76.5 77  75 68 Q 73.5 59  72.75 56.75 L 72 54.5 L 77.75 55.25 Q 83.5 56  84.5 53.5 L 85.5 51 L 85.75 48.25 Q 86 45.5  80.75 41.25 Q 75.5 37  76.5 35 Q 77.5 33  77.75 32.75 L 78 32.5 L 79.25 31.75 Q 80.5 31  82.25 30.25  Z  " id="path2"/>
<path style="opacity:1;fill:#000000;fill-rule:evenodd;stroke:#000000;stroke-width:0px;stroke-linecap:butt;stroke-linejoin:miter;stroke-opacity:1" d="M 270.5 6.5 Q 272 6.5  273 7 L 274 7.5 L 275.25 10.25 Q 276.5 13  278.25 19.25 Q 280 25.5  284.5 28.5 Q 289 31.5  291 33 L 293 34.5 L 290 36.5 Q 287 38.5  285 38.75 Q 283 39  281.5 49 L 280 59 L 272 61.25 L 264 63.5 L 260.75 67.75 Q 257.5 72  256.25 73.75 Q 255 75.5  252.5 75.75 L 250 76 L 247 64.75 Q 244 53.5  243.5 53 Q 243 52.5  238.75 52.25 L 234.5 52 L 236 49.5 Q 237.5 47  239.5 45 Q 241.5 43  242.5 32.5 L 243.5 22 L 247.75 19.75 Q 252 17.5  260.5 12 Q 269 6.5  270.5 6.5  Z  " id="path4"/>

</svg>